<?xml version="1.0" standalone="no"?>
<!DOCTYPE svg PUBLIC "-//W3C//DTD SVG 20010904//EN"
 "http://www.w3.org/TR/2001/REC-SVG-20010904/DTD/svg10.dtd">
<svg version="1.0" xmlns="http://www.w3.org/2000/svg"
 width="1437.000000pt" height="1460.000000pt" viewBox="0 0 1437.000000 1460.000000"
 preserveAspectRatio="xMidYMid meet">

<g transform="translate(0.000000,1460.000000) scale(0.100000,-0.100000)"
fill="#000000" stroke="none">
<path d="M7916 5808 c-3 -7 -7 -74 -11 -148 -7 -154 -23 -353 -31 -390 -6 -28
-20 -40 -49 -40 -27 0 -105 -50 -105 -67 0 -17 30 -16 49 1 9 8 33 17 54 21
36 7 37 6 37 -21 -1 -76 -63 -295 -103 -364 -31 -54 -87 -109 -125 -121 -115
-38 -199 83 -143 208 27 59 56 75 132 71 58 -3 64 -1 67 17 4 34 -14 49 -56
48 -118 -5 -202 -100 -202 -228 0 -107 54 -170 146 -168 162 2 271 156 333
469 l17 89 50 7 c27 4 57 9 68 10 15 2 24 -14 52 -92 117 -328 244 -464 365
-391 17 10 37 28 45 39 19 28 21 91 3 103 -24 15 -34 4 -37 -38 -2 -25 -11
-48 -22 -58 -18 -16 -21 -16 -44 -1 -71 46 -173 286 -310 731 -26 83 -59 188
-74 235 l-27 85 -38 3 c-24 2 -39 -1 -41 -10z m118 -548 c-5 -5 -28 -12 -52
-16 l-43 -7 6 134 c9 203 11 204 58 41 24 -85 36 -147 31 -152z"/>
</g>
</svg>
