<svg width="115" height="100" viewBox="0 0 115 100" fill="none" xmlns="http://www.w3.org/2000/svg">
<path fill-rule="evenodd" clip-rule="evenodd" d="M106.101 0.0141797C105.167 0.0713068 104.263 0.214799 103.738 0.389046C102.45 0.816489 101.17 1.42534 100.849 1.76338C100.78 1.83576 100.683 1.895 100.634 1.895C100.511 1.895 99.8315 2.44091 98.6443 3.49439C97.716 4.3181 96.6183 5.48272 95.9961 6.30382C95.8496 6.49727 95.6595 6.72806 95.5738 6.8167C95.384 7.01294 94.0925 8.79264 94.0925 8.85794C94.0925 8.88356 94.0118 9.00522 93.9134 9.12824C93.8149 9.25126 93.6257 9.52249 93.4929 9.73103C93.3602 9.93957 93.1528 10.2619 93.032 10.4472C92.7582 10.8673 90.3308 15.0969 90.3308 15.1538C90.3308 15.1767 90.1789 15.4828 89.9932 15.8339C89.8076 16.1851 89.6557 16.4902 89.6557 16.5119C89.6557 16.5336 89.5434 16.7704 89.4062 17.0382C89.0158 17.8002 88.5492 18.7861 88.1592 19.6735C88.0675 19.8821 87.9146 20.2043 87.8193 20.3897C87.724 20.5751 87.5313 21.0111 87.391 21.3587C87.2507 21.7063 87.0952 22.0564 87.0455 22.1369C86.9957 22.2174 86.955 22.3573 86.955 22.4479C86.955 22.5385 86.917 22.6332 86.8705 22.6582C86.824 22.6833 86.6647 23.0363 86.5163 23.4426C86.3681 23.8489 86.2167 24.2193 86.1801 24.2656C86.1434 24.3119 86.0352 24.5774 85.9396 24.8554C85.8441 25.1335 85.7373 25.3989 85.7022 25.4452C85.6671 25.4916 85.5584 25.7759 85.4605 26.0772C85.3627 26.3784 85.2466 26.6609 85.2025 26.7049C85.1585 26.7489 85.1224 26.8537 85.1224 26.9378C85.1224 27.0218 85.0813 27.1564 85.031 27.2369C84.9809 27.3174 84.8693 27.5917 84.7831 27.8466C84.6968 28.1015 84.5891 28.3858 84.5437 28.4785C84.4982 28.5712 84.3964 28.8366 84.3174 29.0683C84.2384 29.3 84.0209 29.9257 83.834 30.4586C83.647 30.9915 83.3606 31.8257 83.1973 32.3123C83.034 32.7989 82.8359 33.3676 82.757 33.5762C82.6782 33.7847 82.6138 34.0343 82.6141 34.1308C82.6144 34.2274 82.5843 34.3329 82.5474 34.3651C82.5103 34.3975 82.3988 34.6787 82.2996 34.9901C81.9301 36.1496 81.8267 36.4884 81.78 36.6937C81.7536 36.8096 81.6944 36.9802 81.6483 37.0729C81.5521 37.2669 81.0767 38.87 80.9237 39.5164C80.8908 39.6554 80.8298 39.845 80.7883 39.9377C80.6648 40.2127 80.3946 41.2706 80.3954 41.4754C80.3958 41.5796 80.3573 41.665 80.3099 41.665C80.2624 41.665 80.2021 41.8072 80.176 41.9809C80.1498 42.1548 80.0531 42.5434 79.9611 42.8446C79.8691 43.1458 79.7581 43.5439 79.7145 43.7293C79.6709 43.9147 79.5941 44.218 79.5439 44.4034C79.3091 45.2721 79.1129 46.034 79.045 46.3413C79.004 46.5267 78.923 46.8679 78.8648 47.0996C78.5436 48.3793 78.2506 49.5937 78.1736 49.9644C78.1255 50.1961 78.0184 50.689 77.9356 51.0598C77.8527 51.4305 77.7395 51.9613 77.6837 52.2394C77.6281 52.5174 77.5467 52.9156 77.5028 53.1241C77.2991 54.0924 76.9627 56.0632 76.8584 56.8995C76.8154 57.2442 76.7705 57.3359 76.6625 57.2998C76.5853 57.2739 76.5041 57.2528 76.4819 57.2528C76.4598 57.2528 76.4416 57.2124 76.4416 57.1631C76.4416 57.1138 76.0944 56.621 75.67 56.068C75.2456 55.515 74.8984 55.0431 74.8984 55.0193C74.8984 54.9956 74.7465 54.7873 74.5608 54.5565C74.3751 54.3257 74.2232 54.0986 74.2232 54.0518C74.2232 54.005 74.1841 53.9667 74.1363 53.9667C74.0608 53.9667 73.6776 53.4925 73.5578 53.2509C73.5349 53.2048 73.3714 52.9872 73.1945 52.7673C73.0177 52.5474 72.8729 52.3292 72.8729 52.2824C72.8729 52.2356 72.8404 52.197 72.8005 52.1968C72.7607 52.1964 72.6414 52.0745 72.5353 51.9259C72.4292 51.7771 72.2669 51.5593 72.1747 51.4419C72.0824 51.3244 71.9764 51.1714 71.9391 51.1019C71.9018 51.0324 71.6844 50.7361 71.4558 50.4436C71.2273 50.151 71.0403 49.8807 71.0403 49.843C71.0403 49.8052 70.9706 49.7239 70.8856 49.6623C70.8005 49.6005 70.6919 49.4727 70.6443 49.3781C70.5968 49.2834 70.3407 48.9217 70.0754 48.5741C69.81 48.2266 69.5625 47.8853 69.5254 47.8158C69.4883 47.7463 69.3434 47.5378 69.2034 47.3524C69.0635 47.167 68.784 46.7879 68.5822 46.5098C68.3805 46.2318 68.0589 45.7957 67.8677 45.5408C67.6765 45.286 67.4421 44.9447 67.347 44.7825C67.2518 44.6203 67.0474 44.317 66.8926 44.1085C66.7379 43.8999 66.5228 43.5705 66.4147 43.3763C66.3066 43.1821 66.1772 43.0012 66.1271 42.9742C66.077 42.9471 65.9377 42.7457 65.8175 42.5267C65.6972 42.3076 65.5367 42.0627 65.4608 41.9824C65.3849 41.9021 65.2094 41.6493 65.0709 41.4204C64.3566 40.2403 64.1613 39.934 64.0988 39.8955C64.0318 39.8542 63.4226 38.8798 62.7809 37.7872C62.4169 37.1675 62.4138 37.364 62.8252 35.0085C62.9344 34.3829 63.0488 33.6625 63.0792 33.4076C63.1096 33.1528 63.1752 32.6219 63.2249 32.228C63.4492 30.4494 63.605 28.7082 63.7755 26.0772C63.8763 24.519 63.8783 18.6116 63.7784 17.23C63.6112 14.9182 63.3194 12.5667 63.0465 11.3319C62.9901 11.0771 62.924 10.7737 62.8994 10.6579C62.7019 9.72791 62.3185 8.3748 62.1712 8.08799C62.1236 7.9953 62.064 7.82468 62.0386 7.70883C61.9072 7.10714 60.7638 4.88221 60.4806 4.67696C60.4 4.61848 60.334 4.53574 60.334 4.4931C60.334 4.34557 59.5778 3.52203 59.1128 3.16325C58.4407 2.64456 57.9639 2.37872 57.2119 2.10362C56.5839 1.87385 56.4805 1.8618 55.2347 1.87284C53.7199 1.88632 51.9522 2.15544 50.5923 2.57968C50.1414 2.72039 49.6647 2.85748 49.5331 2.88436C49.29 2.93399 48.3484 3.35519 48.0845 3.53239C48.0049 3.58581 47.8096 3.68355 47.6505 3.74944C47.0824 3.98494 45.1579 5.54802 45.0413 5.86854C45.0104 5.95389 44.9487 6.02366 44.9043 6.02366C44.8157 6.02366 44.0455 7.15356 43.8128 7.62457C43.7328 7.78676 43.5919 8.12801 43.4996 8.38289C43.4074 8.63777 43.2993 8.92215 43.2593 9.01483C43.1042 9.3747 42.9771 9.87856 42.9192 10.363C42.8859 10.641 42.8172 10.9882 42.7665 11.1343C42.6393 11.501 42.6525 14.93 42.7843 15.7555C42.8436 16.1262 42.9315 16.695 42.98 17.0194C43.1377 18.0767 43.4707 19.5127 43.8105 20.6004C43.8901 20.8552 43.9922 21.2154 44.0375 21.4008C44.0827 21.5862 44.2094 21.9843 44.3191 22.2855C44.4288 22.5868 44.5664 22.9849 44.6249 23.1702C44.8247 23.8033 45.0369 24.3498 45.114 24.4299C45.1563 24.4739 45.1909 24.5787 45.1909 24.6628C45.1909 24.7468 45.2283 24.8814 45.2738 24.9619C45.3194 25.0424 45.4311 25.3167 45.5222 25.5716C45.7806 26.295 46.6459 28.2883 47.2415 29.5317C47.297 29.6476 47.3568 29.8063 47.3743 29.8845C47.3919 29.9626 47.5076 30.1901 47.6315 30.39C47.7554 30.59 47.915 30.9147 47.986 31.1116C48.0572 31.3085 48.1471 31.4697 48.186 31.4697C48.2248 31.4697 48.2851 31.5739 48.3202 31.7014C48.3553 31.8288 48.5336 32.2075 48.7165 32.543C48.8994 32.8784 49.0487 33.1817 49.0483 33.217C49.0479 33.2523 49.2834 33.6983 49.5718 34.2081C49.8601 34.7179 50.1895 35.3245 50.3037 35.5562C50.6531 36.2648 53.0854 40.4758 53.1995 40.5696C53.2278 40.5928 53.464 40.9909 53.7245 41.4543C53.985 41.9177 54.2956 42.4345 54.4146 42.6027C54.5335 42.7708 54.8508 43.2732 55.1194 43.7191C56.7189 46.3737 56.5975 46.1285 56.5404 46.5903C56.5115 46.8241 56.44 47.2808 56.3817 47.6052C56.3233 47.9296 56.235 48.4414 56.1854 48.7427C56.0497 49.5666 55.817 50.9168 55.7207 51.4389C55.362 53.382 55.1984 54.2179 55.1268 54.4722C55.0812 54.6344 54.9291 55.3359 54.7889 56.031C54.6486 56.7261 54.4956 57.4276 54.449 57.5898C54.4023 57.752 54.3419 57.9984 54.3147 58.1375C54.2875 58.2765 54.151 58.8452 54.0114 59.4013C53.8719 59.9575 53.7205 60.5641 53.6753 60.7495C53.63 60.9349 53.5487 61.2382 53.4946 61.4235C53.4404 61.6089 53.3273 62.026 53.2431 62.3504C53.0378 63.1407 52.9678 63.3887 52.6798 64.3461C52.1497 66.1082 51.9258 66.8315 51.798 67.1953C51.2378 68.7882 51.0682 69.2949 51.0146 69.5352C50.9808 69.6868 50.9154 69.8312 50.8692 69.8561C50.823 69.8811 50.7852 69.9756 50.7852 70.0662C50.7852 70.1568 50.7461 70.2967 50.6984 70.3772C50.6505 70.4576 50.5332 70.751 50.4374 71.029C50.3416 71.3071 50.2289 71.5705 50.1867 71.6146C50.1446 71.6586 50.11 71.7634 50.11 71.8475C50.11 71.9315 50.0711 72.0661 50.0235 72.1466C49.9759 72.2271 49.8629 72.4635 49.7724 72.672C49.682 72.8806 49.569 73.117 49.5214 73.1975C49.4738 73.2779 49.4349 73.4179 49.4349 73.5085C49.4349 73.5991 49.3915 73.6966 49.3384 73.7253C49.2854 73.7539 49.2417 73.8415 49.2414 73.9198C49.241 73.9982 49.1759 74.1709 49.0967 74.3036C49.0174 74.4364 48.9527 74.5881 48.9529 74.6407C48.953 74.6933 48.8697 74.888 48.7677 75.0734C48.6657 75.2588 48.5084 75.5811 48.4181 75.7896C48.3279 75.9981 48.1669 76.3394 48.0606 76.5479C47.9542 76.7565 47.8322 77.0029 47.7894 77.0956C47.7466 77.1883 47.5568 77.5569 47.3676 77.9148C47.1783 78.2725 47.0235 78.5895 47.0235 78.6191C47.0235 78.6935 45.6854 81.0012 45.1954 81.7719C44.9743 82.1195 44.7693 82.4702 44.7398 82.5513C44.7103 82.6325 44.6478 82.6988 44.6009 82.6988C44.5542 82.6988 44.5158 82.7357 44.5158 82.7808C44.5158 82.8737 43.4444 84.4197 42.85 85.1844C42.4315 85.7228 40.5625 87.9363 40.4666 88.0071C40.4351 88.0302 40.0354 88.4284 39.5784 88.8918C38.4349 90.0509 36.7403 91.465 35.6404 92.1779C35.4973 92.2705 35.051 92.5644 34.6483 92.8309C34.2457 93.0974 33.8944 93.3153 33.8677 93.3153C33.8411 93.3153 33.6263 93.4291 33.3904 93.5681C33.1546 93.7071 32.9159 93.8209 32.8599 93.8209C32.8039 93.8209 32.7235 93.8698 32.681 93.9295C32.6021 94.0405 30.2268 95.0848 30.0531 95.0848C30.0004 95.0848 29.8149 95.1528 29.6408 95.2359C29.4668 95.319 29.064 95.4571 28.7457 95.5427C27.8407 95.7861 27.6027 95.8547 27.3954 95.9322C26.8804 96.1244 24.9411 96.4359 23.2962 96.5904C22.2662 96.6871 18.9188 96.642 18.2324 96.522C16.7727 96.2671 16.2374 96.1486 15.3312 95.8799C11.4544 94.7304 8.36402 92.2424 6.33736 88.639C5.78902 87.6641 5.54885 87.1817 5.54885 87.0551C5.54885 86.9939 5.4851 86.8703 5.40726 86.7803C5.32933 86.6905 5.26422 86.5337 5.26258 86.4322C5.26085 86.3307 5.22111 86.2269 5.17414 86.2015C5.12726 86.1762 5.0663 86.0507 5.03872 85.9227C5.01113 85.7947 4.91584 85.4814 4.827 85.2265C4.60593 84.5925 4.45585 84.0244 4.10322 82.4882C3.99683 82.0247 3.90964 81.4869 3.90945 81.2929C3.90925 81.099 3.86546 80.8399 3.81193 80.717C3.68037 80.4146 3.61121 76.4592 3.71934 75.4104C3.79177 74.7072 4.09348 73.0837 4.3458 72.0401C4.45604 71.5839 4.89982 70.3567 4.98412 70.2749C5.02946 70.2308 5.06659 70.1099 5.06659 70.006C5.06659 69.9021 5.10517 69.7964 5.15234 69.7709C5.1995 69.7454 5.2677 69.6199 5.30386 69.4921C5.40051 69.1502 6.32549 67.5668 6.76223 66.9956C6.97018 66.7236 7.20987 66.4098 7.29484 66.2982C7.93838 65.4538 9.65427 64.0004 10.5326 63.556C10.7357 63.4532 10.9237 63.3465 10.9502 63.3189C11.0158 63.2508 12.0013 62.7296 12.0646 62.7296C12.1195 62.7296 13.5936 62.1715 13.8666 62.0474C13.9587 62.0055 14.1649 61.9712 14.3247 61.9712C14.4846 61.9712 14.6154 61.9408 14.6154 61.9036C14.6154 61.845 15.0014 61.7715 16.7374 61.4996C16.923 61.4706 17.7885 61.4294 18.6607 61.4082C19.8895 61.3783 20.4323 61.4012 21.0721 61.5099C22.2535 61.7107 23.2228 62.0099 24.0023 62.4144C24.6911 62.7719 26.2862 64.076 26.2862 64.2816C26.2862 64.3434 26.347 64.4381 26.4213 64.492C26.5881 64.613 27.2507 65.7713 27.2507 65.9419C27.2507 66.0102 27.2896 66.1022 27.337 66.1462C27.4765 66.2756 27.8336 67.5996 27.938 68.3749C28.1916 70.2566 28.1565 71.3333 27.764 73.7017C27.5492 74.9987 27.621 76.1924 27.9505 76.8007C28.2333 77.3229 28.7804 77.8153 29.2612 77.9807C29.7467 78.1477 30.6216 78.1132 31.0793 77.9092C31.6274 77.665 32.2012 77.1612 32.438 76.7164C32.993 75.6744 33.2613 71.6091 32.8995 69.723C32.8062 69.2364 32.7094 68.7245 32.6844 68.5855C32.6594 68.4465 32.6033 68.2569 32.5598 68.1642C32.5162 68.0715 32.4099 67.7569 32.3235 67.465C32.0796 66.6412 31.1284 64.8468 30.5618 64.1417C30.3851 63.9221 30.2408 63.7059 30.2408 63.6615C30.2408 63.617 30.1839 63.5502 30.1144 63.5132C30.0449 63.4761 29.9143 63.351 29.8241 63.2351C29.5198 62.844 28.0752 61.613 27.3892 61.1602C26.7099 60.7118 24.7517 59.8112 24.0196 59.6102C23.8074 59.552 23.5469 59.4744 23.4408 59.4377C23.3347 59.401 23.0092 59.3272 22.7174 59.2738C22.4257 59.2204 22.035 59.1369 21.8494 59.0883C21.6637 59.0397 20.6234 58.982 19.5374 58.96C17.6137 58.9211 16.1097 59.0267 15.0012 59.2788C13.7789 59.5568 12.2286 59.9872 11.9406 60.1286C11.7534 60.2203 11.4167 60.3499 11.1923 60.4165C10.968 60.4831 10.5938 60.6341 10.3609 60.7522C9.91932 60.9761 9.89029 60.9915 9.02347 61.457C7.76399 62.1334 6.06536 63.4821 5.08588 64.5832C4.73556 64.9771 4.42335 65.3184 4.39219 65.3416C4.01969 65.6182 2.08138 68.6564 2.078 68.9689C2.07723 69.0408 2.03624 69.1356 1.98685 69.1795C1.93757 69.2235 1.83359 69.4112 1.75585 69.5966C1.67811 69.782 1.52706 70.1324 1.4201 70.3753C1.31323 70.6182 1.19527 70.9784 1.15794 71.1757C1.12071 71.3731 1.05956 71.5725 1.02204 71.6188C0.856042 71.824 0.372621 73.7573 0.234983 74.7664C-0.0414511 76.7938 -0.079549 79.794 0.150298 81.4338C0.397699 83.1986 1.07509 85.834 1.5043 86.7011C1.55012 86.7937 1.68091 87.135 1.79482 87.4594C1.90873 87.7838 2.1244 88.2767 2.27409 88.5547C3.30257 90.465 3.75647 91.2043 4.44023 92.0832C4.65213 92.3554 4.86886 92.642 4.92191 92.72C4.97496 92.7979 5.30049 93.1762 5.64531 93.5605C6.81518 94.8647 8.7234 96.4146 10.1545 97.2233C11.051 97.7298 12.8894 98.6236 13.0348 98.6236C13.0963 98.6236 13.2709 98.6803 13.4229 98.7495C13.5748 98.8187 13.7663 98.8756 13.8486 98.8759C13.9308 98.8762 14.0393 98.9102 14.0897 98.9515C14.1401 98.9928 14.623 99.1459 15.1629 99.2919C16.0681 99.5367 16.3902 99.6012 17.7501 99.8099C19.3748 100.059 21.9172 100.064 24.4536 99.821C25.3186 99.7383 27.3271 99.3943 27.5628 99.2886C27.655 99.2472 27.8178 99.2134 27.9245 99.2134C28.0314 99.2134 28.1188 99.1755 28.1188 99.1292C28.1188 99.0828 28.2281 99.0449 28.3616 99.0449C28.6505 99.0449 30.2444 98.5817 30.7216 98.3591C30.9065 98.2729 31.1099 98.2023 31.1737 98.2023C31.3469 98.2023 33.8691 97.085 34.5849 96.6912C34.9277 96.5026 35.2966 96.3144 35.4049 96.273C35.5133 96.2316 35.6596 96.1368 35.7303 96.0625C35.8009 95.9882 35.9185 95.9274 35.9915 95.9274C36.0646 95.9274 36.1264 95.8989 36.1289 95.8642C36.1314 95.8295 36.3509 95.6683 36.6168 95.5061C38.3282 94.4619 40.7535 92.5123 42.3326 90.9113C42.6968 90.5421 43.0883 90.1451 43.2027 90.0293C43.3171 89.9134 43.5385 89.667 43.6949 89.4816C43.8512 89.2962 44.1014 89.0118 44.2508 88.8497C44.4002 88.6875 44.561 88.5121 44.6081 88.46C45.0452 87.9761 47.3227 84.92 47.5829 84.4682C47.6496 84.3524 47.8612 84.0301 48.0532 83.752C48.4535 83.1721 50.5817 79.5183 50.7769 79.0757C50.8485 78.9135 51.051 78.5154 51.227 78.191C51.6927 77.333 51.9426 76.8155 51.9426 76.7093C51.9426 76.6581 52.0024 76.5154 52.0755 76.3924C52.2008 76.1816 52.3128 75.9555 52.5098 75.5158C52.6983 75.0949 52.9358 74.5516 53.053 74.273C53.1212 74.1108 53.2683 73.7739 53.3797 73.5245C53.4912 73.275 53.5823 73.0064 53.5823 72.9276C53.5823 72.8488 53.612 72.7584 53.6484 72.7266C53.7513 72.6367 54.3111 71.226 54.7401 69.9758C54.8594 69.6282 54.9928 69.268 55.0366 69.1753C55.0804 69.0826 55.2716 68.5329 55.4615 67.9536C55.6513 67.3743 55.8914 66.6645 55.995 66.3762C56.0986 66.0879 56.2117 65.6898 56.2464 65.4915C56.281 65.2932 56.3414 65.093 56.3805 65.0467C56.4197 65.0003 56.4748 64.8487 56.5028 64.7096C56.531 64.5706 56.6683 64.0777 56.8081 63.6143C56.9478 63.1508 57.1017 62.62 57.15 62.4347C57.1982 62.2493 57.307 61.8322 57.3916 61.5078C57.6154 60.6498 57.7186 60.2471 57.8182 59.8437C57.8669 59.6468 57.9971 59.1291 58.1076 58.6934C58.218 58.2577 58.3085 57.7955 58.3085 57.6662C58.3085 57.537 58.3519 57.4078 58.405 57.3791C58.458 57.3505 58.5014 57.2105 58.5014 57.068C58.5014 56.9255 58.5419 56.6718 58.5915 56.5042C58.6411 56.3366 58.7513 55.8583 58.8366 55.4412C58.9219 55.0241 59.0303 54.4933 59.0775 54.2616C59.1248 54.0299 59.2081 53.5938 59.2627 53.2926C59.6888 50.9431 59.6737 50.9745 60.0504 51.6457C60.2003 51.9128 60.3853 52.1935 60.4615 52.2695C60.5377 52.3456 60.6718 52.5217 60.7594 52.6607C60.847 52.7997 61.0027 53.0272 61.1056 53.1662C61.2086 53.3053 61.3642 53.53 61.4516 53.6656C61.539 53.8013 61.7574 54.0948 61.9368 54.3178C62.1163 54.5408 62.2631 54.7491 62.2631 54.7807C62.2631 54.8123 62.3352 54.9078 62.4233 54.9928C62.5114 55.0779 62.6308 55.2213 62.6885 55.3115C62.7463 55.4018 63.1408 55.9144 63.5652 56.4507C63.9896 56.9869 64.3872 57.5057 64.4487 57.6034C64.5101 57.7011 64.5969 57.8044 64.6416 57.8329C64.7385 57.8949 65.0941 58.3389 65.189 58.5166C65.2261 58.5861 65.388 58.7947 65.5487 58.9801C65.802 59.2721 66.0756 59.6122 66.6999 60.4111C66.7795 60.5129 66.9748 60.7596 67.1339 60.9593C67.2931 61.159 67.4667 61.383 67.5198 61.4573C67.5728 61.5314 67.638 61.611 67.6646 61.6342C67.6911 61.6574 67.9032 61.9228 68.1357 62.224C68.7303 62.9945 69.151 63.5228 69.209 63.5721C69.2721 63.6256 70.381 65.0472 70.5098 65.2396C70.5628 65.3188 70.6282 65.4027 70.655 65.4258C70.7592 65.5158 71.2052 66.0624 71.2422 66.1455C71.2638 66.1937 71.5418 66.564 71.8601 66.9683C72.1784 67.3726 72.4822 67.7695 72.5353 67.8502C72.5883 67.9309 72.8922 68.3311 73.2105 68.7394C73.5288 69.1477 73.8364 69.5548 73.8942 69.644C73.952 69.7331 74.0713 69.8757 74.1595 69.9608C74.2475 70.0458 74.3197 70.1413 74.3197 70.1729C74.3197 70.2045 74.4773 70.4261 74.6698 70.6654L75.0199 71.1006L74.9574 71.781C74.9231 72.1552 74.8779 72.6131 74.8571 72.7984C74.7529 73.7258 74.7178 77.6546 74.7988 79.3285C74.9114 81.6573 75.0185 82.5626 75.4762 85.058C75.6868 86.206 76.5108 89.0755 76.7401 89.4593C76.7881 89.5398 76.8274 89.6636 76.8274 89.7344C76.8274 89.8051 76.8655 89.9289 76.9121 90.0094C77.0818 90.3025 77.3097 90.7952 77.3097 90.8688C77.3097 91.039 78.6463 93.4839 78.7393 93.4839C78.776 93.4839 78.8672 93.607 78.9423 93.7577C79.1488 94.1722 79.823 95.0848 79.9226 95.0848C79.9708 95.0848 80.0104 95.1362 80.0104 95.1989C80.0104 95.2616 80.1426 95.4418 80.3042 95.5991C80.4657 95.7565 80.8673 96.1465 81.1964 96.4659C81.8707 97.1203 83.0635 97.9303 83.8926 98.2967C84.1976 98.4315 84.4472 98.5213 84.4472 98.4963C84.4472 98.4713 84.5665 98.5029 84.7125 98.5667C85.437 98.8831 87.164 98.9489 87.9125 98.6887C88.4474 98.5025 88.9883 98.2536 89.0901 98.1464C89.1489 98.0845 89.253 98.0338 89.3213 98.0338C89.4572 98.0338 90.2693 97.2535 90.6618 96.7459C90.9655 96.3531 91.2954 95.7652 91.2954 95.6166C91.2954 95.5558 91.3337 95.5061 91.3805 95.5061C91.4274 95.5061 91.4896 95.4398 91.5187 95.3586C91.8816 94.349 91.9292 94.1746 92.2065 92.843C92.3351 92.2252 92.3587 91.6837 92.3274 90.0625C92.2799 87.6028 92.1713 86.8122 91.4982 84.0259C91.386 83.5616 90.8227 81.6832 90.7464 81.5192C90.7141 81.4497 90.6735 81.3359 90.6563 81.2664C90.5872 80.9883 89.5659 78.3497 89.368 77.9382C89.3235 77.8455 89.1272 77.3905 88.9318 76.9271C88.7364 76.4637 88.4764 75.8949 88.3541 75.6632C87.8852 74.7744 87.6301 74.2666 87.6301 74.2218C87.6301 74.1962 87.4131 73.7832 87.1479 73.304C86.8826 72.8248 86.6656 72.4089 86.6656 72.3799C86.6656 72.2899 85.1463 69.6524 84.9531 69.4071C84.8528 69.2796 84.585 68.853 84.3582 68.4591C84.1313 68.0652 83.858 67.6102 83.7508 67.448C83.6437 67.2858 83.4503 66.9825 83.3212 66.774C83.1922 66.5654 83.0468 66.3379 82.9984 66.2684C82.2348 65.1736 82.0359 64.867 82.0359 64.7853C82.0359 64.7319 81.9683 64.6391 81.8856 64.5792C81.803 64.5193 81.6711 64.3359 81.5925 64.1716C81.514 64.0073 81.4162 63.8526 81.3752 63.8279C81.3342 63.8031 81.1324 63.5363 80.9267 63.2351C80.7209 62.9339 80.5235 62.6685 80.4879 62.6453C80.4522 62.6221 80.3467 62.4705 80.2533 62.3083C80.16 62.1461 80.0167 61.9468 79.9351 61.8654C79.8066 61.7374 79.8018 61.6239 79.9001 61.0228C80.0655 60.0109 80.2117 59.0566 80.2969 58.4324C80.3797 57.8261 80.9275 55.0089 81.1651 53.9667C81.2127 53.7581 81.3651 53.0567 81.5038 52.4079C81.6425 51.7591 81.7931 51.0766 81.8385 50.8913C82.1857 49.4742 82.4486 48.3958 82.5163 48.1107C82.5604 47.9254 82.7122 47.3377 82.8537 46.8047C82.9951 46.2718 83.1487 45.6841 83.1948 45.4987C83.2914 45.1103 83.419 44.6321 83.6332 43.8557C83.7163 43.5545 83.8215 43.1563 83.867 42.971C84.0879 42.0698 84.3799 41.0156 84.4505 40.8645C84.4937 40.7718 84.55 40.6012 84.5755 40.4853C84.601 40.3695 84.738 39.8955 84.8801 39.4321C85.0221 38.9687 85.1615 38.4947 85.1899 38.3789C85.2484 38.1402 85.8467 36.1942 85.9801 35.809C86.0282 35.67 86.2268 35.0444 86.4213 34.4187C86.6159 33.7931 86.8807 33.0099 87.0097 32.6782C87.1387 32.3465 87.2443 32.0142 87.2443 31.9398C87.2443 31.8654 87.2823 31.7386 87.3288 31.6581C87.3752 31.5776 87.4867 31.2843 87.5766 31.0063C87.8992 30.0081 87.9333 29.9086 88.0091 29.7424C88.2071 29.3086 88.4026 28.7137 88.4023 28.5467C88.402 28.4452 88.4452 28.3386 88.4982 28.31C88.5513 28.2814 88.5947 28.173 88.5947 28.0691C88.5947 27.9652 88.6312 27.8443 88.676 27.8002C88.7207 27.7563 88.8318 27.4927 88.9228 27.2146C89.0138 26.9366 89.1291 26.6433 89.1791 26.5628C89.229 26.4824 89.2698 26.3477 89.2698 26.2637C89.2698 26.1796 89.3044 26.0748 89.3466 26.0308C89.3889 25.9868 89.4792 25.7991 89.5474 25.6137C89.6975 25.2061 90.1226 24.162 90.2335 23.9286C90.2775 23.8359 90.3843 23.5515 90.4706 23.2966C90.557 23.0417 90.6702 22.7574 90.7224 22.6647C90.7745 22.572 90.92 22.2497 91.0455 21.9485C91.5862 20.6522 91.7802 20.2124 91.8724 20.0749C91.9264 19.9945 91.9705 19.8748 91.9705 19.809C91.9705 19.7433 92.0538 19.5437 92.1554 19.3656C92.2571 19.1873 92.5434 18.6055 92.7916 18.0726C93.0398 17.5397 93.3907 16.8298 93.5713 16.4951C93.7518 16.1605 93.8996 15.8585 93.8996 15.8239C93.8996 15.7696 94.9914 13.7915 95.5652 12.8065C96.0916 11.9027 96.5368 11.1911 96.7043 10.9856C96.8063 10.8605 96.8896 10.7395 96.8896 10.7167C96.8896 10.6088 98.5611 8.32568 99.0424 7.77606C99.6473 7.08531 100.355 6.34957 100.836 5.91151C101.461 5.34201 102.806 4.33849 102.944 4.33849C102.996 4.33849 103.087 4.28785 103.146 4.22592C103.451 3.90532 104.912 3.42673 106.037 3.27894C106.834 3.17438 107.024 3.17606 107.674 3.29326C108.559 3.45302 108.791 3.55278 109.252 3.97348C109.866 4.5327 110.096 5.48491 110.297 8.29863C110.338 8.87791 110.405 9.46426 110.446 9.60152C110.707 10.4838 111.949 11.3229 112.913 11.2686C114.327 11.1889 115.091 10.1258 114.991 8.37885C114.918 7.09281 114.534 5.45845 114.231 5.14316C114.189 5.09909 114.155 4.99983 114.155 4.92257C114.155 4.7067 113.341 3.36303 112.916 2.87652C111.505 1.26289 109.617 0.289284 107.499 0.0834406C107.208 0.0551298 106.882 0.021258 106.776 0.00828224C106.67 -0.00477781 106.366 -0.00208221 106.101 0.0141797ZM55.3667 4.42275C55.3995 4.46909 55.5056 4.50701 55.6025 4.50701C55.6994 4.50701 55.903 4.56329 56.055 4.63205C56.3459 4.76366 57.344 5.58711 57.344 5.69547C57.344 5.73035 57.4047 5.81183 57.4788 5.87663C57.9727 6.30803 58.6544 7.97651 59.1741 10.0259C59.327 10.6287 59.5489 11.8667 59.6046 12.4273C59.6345 12.7285 59.6779 13.1646 59.7011 13.3963C60.0603 16.9952 60.0096 22.7236 59.5759 27.5095C59.2683 30.9048 59.1832 31.4697 58.9798 31.4697C58.9289 31.4697 58.8872 31.4299 58.8872 31.3814C58.8872 31.3328 58.8065 31.1527 58.7078 30.9812C57.6452 29.1332 56.6476 27.3727 56.4304 26.9619C56.2833 26.6838 55.9296 26.0374 55.6443 25.5253C55.359 25.0132 55.1256 24.5515 55.1256 24.4992C55.1256 24.447 54.9737 24.1497 54.788 23.8385C54.6023 23.5272 54.4504 23.2199 54.4504 23.1553C54.4504 23.0907 54.3832 22.9482 54.3009 22.8386C54.2187 22.729 54.0722 22.4555 53.9753 22.2307C53.7994 21.8227 53.285 20.6993 53.0549 20.2212C52.8177 19.7281 52.628 19.29 52.5076 18.9573C52.4404 18.772 52.351 18.5843 52.3088 18.5402C52.2665 18.4963 52.232 18.4072 52.232 18.3423C52.232 18.2775 52.1698 18.105 52.0938 17.9589C51.9642 17.71 51.6822 17.0071 51.5985 16.7245C51.5779 16.655 51.4696 16.3327 51.3578 16.0083C51.0967 15.2503 51.038 15.0627 50.7908 14.1967C50.6784 13.8028 50.5466 13.3478 50.4979 13.1856C50.4492 13.0234 50.384 12.7391 50.3529 12.5537C50.3219 12.3683 50.2308 11.8754 50.1505 11.4583C49.9759 10.5506 49.9522 8.30403 50.1119 7.78019C50.5293 6.41023 50.7488 6.04152 51.5306 5.39703C52.1226 4.90883 52.5602 4.70367 53.4267 4.50793C54.1795 4.3379 55.2727 4.28987 55.3667 4.42275ZM62.1411 62.3289C62.0081 62.4166 61.9637 62.7146 61.8797 64.0777C61.7811 65.6788 61.7299 66.2407 61.6252 66.8708C61.5791 67.149 61.5359 67.1869 61.1711 67.2691C60.6013 67.3974 60.1411 67.665 60.1411 67.868C60.1411 68.0823 60.2713 68.083 60.6031 67.8705C60.7469 67.7784 61.0055 67.6789 61.178 67.6493C61.556 67.5844 61.5632 67.6272 61.3374 68.5976C60.8666 70.6209 60.067 71.8102 59.0796 71.9559C58.5615 72.0324 58.1853 71.84 57.9212 71.3633C57.687 70.9406 57.7045 70.51 57.9747 70.0537C58.1809 69.7054 58.4669 69.5966 59.1766 69.5966C59.785 69.5966 59.8044 69.59 59.8334 69.3706C59.8791 69.0253 59.59 68.9284 58.9111 69.0611C57.9414 69.2506 57.3263 69.9813 57.3169 70.955C57.3056 72.1089 58.3135 72.7042 59.5142 72.2528C60.6228 71.8359 61.3093 70.8885 61.8214 69.0689C61.9484 68.6176 62.079 68.1109 62.1116 67.9428C62.1696 67.6438 62.1821 67.6362 62.6751 67.5963C62.9525 67.574 63.2371 67.5409 63.3077 67.5229C63.3931 67.501 63.5249 67.7148 63.703 68.1642C64.4444 70.0343 65.2874 71.281 66.044 71.6263C66.7184 71.9341 67.6082 71.6368 67.8382 71.027C67.9792 70.653 67.873 70.3128 67.6151 70.3128C67.4539 70.3128 67.2765 70.6289 67.3469 70.7907C67.419 70.9561 67.1875 71.2397 66.9804 71.2397C66.2529 71.2397 65.0005 68.6763 63.358 63.8258C63.1146 63.107 62.8663 62.4756 62.8063 62.4226C62.6235 62.2614 62.3101 62.2173 62.1411 62.3289ZM63.185 67.0078C63.1564 67.0327 62.9343 67.0796 62.6913 67.1117L62.2497 67.1703L62.3188 66.3191C62.3568 65.851 62.3977 65.3921 62.4097 65.2994C62.4216 65.2067 62.4396 65.0172 62.4496 64.8781C62.4614 64.7149 62.6041 65.0395 62.8524 65.7939C63.0639 66.4365 63.2136 66.9827 63.185 67.0078ZM78.66 76.1334C78.66 76.1727 78.8663 76.494 79.1182 76.8474C79.6449 77.586 80.0717 78.2189 80.1663 78.4016C80.2023 78.4711 80.3243 78.6418 80.4374 78.7808C80.5504 78.9198 80.748 79.2231 80.8762 79.4548C81.0045 79.6866 81.165 79.935 81.2328 80.0069C81.3597 80.1416 81.6617 80.6248 82.7567 82.446C83.1051 83.0253 83.4751 83.6225 83.579 83.7731C83.683 83.9237 83.7444 84.0469 83.7153 84.0469C83.6862 84.0469 83.7447 84.1512 83.8451 84.2786C84.0222 84.5035 84.4472 85.2627 84.4472 85.3544C84.4472 85.3794 84.6696 85.8063 84.9415 86.3032C85.6706 87.6355 85.7583 87.8086 86.1236 88.639C87.1563 90.986 87.5593 92.2934 87.7952 94.063C87.8223 94.2656 87.7888 94.6637 87.7208 94.9477C87.6232 95.3559 87.5196 95.5324 87.2261 95.7914C86.8711 96.1046 86.834 96.1169 86.381 96.0699C86.1204 96.043 85.7198 95.9378 85.4906 95.8362C85.0797 95.6539 83.1933 94.063 83.1933 93.8988C83.1933 93.8259 82.8536 93.3556 82.7111 93.2311C82.5211 93.0652 82.169 92.5108 81.5602 91.4195C80.5458 89.6012 80.4921 89.4967 80.4924 89.3391C80.4926 89.2607 80.4492 89.1732 80.3962 89.1446C80.3431 89.1159 80.2997 89.0183 80.2997 88.9278C80.2997 88.8372 80.2588 88.6972 80.2087 88.6168C80.0604 88.3786 79.3186 86.0806 79.1142 85.2265C78.7276 83.6106 78.7138 83.5366 78.4627 81.7298C78.4112 81.3591 78.3511 80.942 78.329 80.803C78.307 80.664 78.2569 79.4741 78.2176 78.159L78.1462 75.7677L78.4032 75.9147C78.5444 75.9956 78.66 76.0939 78.66 76.1334Z" fill="#FF9F1C"/>
</svg>
