<svg width="129" height="170" viewBox="0 0 129 170" fill="none" xmlns="http://www.w3.org/2000/svg">
<path fill-rule="evenodd" clip-rule="evenodd" d="M110.102 0.409859C109.779 0.643711 108.809 2.72323 107.947 5.0315C107.084 7.33978 106.137 9.45158 105.841 9.72486C105.41 10.1239 104.304 10.2011 100.242 10.1171C95.6867 10.0226 95.1026 10.077 94.4045 10.6596C93.5335 11.387 93.3996 12.508 94.0889 13.2986C94.3419 13.5885 96.1232 14.8971 98.0479 16.2064C99.9726 17.5154 101.767 18.8312 102.035 19.1299C102.449 19.5909 102.267 20.357 100.833 24.1901C99.9035 26.6741 99.144 28.898 99.1447 29.1316C99.1473 29.8331 100.558 30.916 101.469 30.916C101.938 30.916 104.082 29.7689 106.234 28.3668C108.387 26.9647 110.238 25.8175 110.348 25.8175C110.458 25.8175 110.548 41.436 110.548 60.5252V95.2333L109.169 95.0093C107.25 94.6979 101.722 93.236 99.3143 92.4036L97.3072 91.7095L97.2814 88.25C97.2671 86.3472 97.1281 84.4896 96.9729 84.1219C96.7838 83.6756 97.0199 82.7728 97.6846 81.4027C98.6614 79.3891 99.61 76.8228 100.028 75.0625C100.198 74.3473 100.512 74.1315 101.624 73.966C103.324 73.7134 105.684 71.9707 106.364 70.466C107.04 68.9707 107.003 67.5003 106.162 62.4361C105.404 57.874 104.959 56.7611 103.317 55.3257C101.962 54.1408 100.616 53.6894 98.4389 53.6894H96.676L95.267 51.5651C94.4916 50.3968 92.4342 48.1331 90.6944 46.5349C85.2833 41.5641 78.4767 38.5519 70.6477 37.6627C64.1427 36.9238 56.574 38.4187 50.2283 41.6957C47.8997 42.8979 46.1633 44.1793 43.4239 46.7164C39.0592 50.7585 36.8292 54.1266 35.0509 59.3624L33.8743 62.8257L32.2975 63.1928C31.3041 63.4239 30.1929 64.0473 29.2944 64.8777C27.1545 66.8552 26.9618 68.2169 27.9809 74.161C28.4381 76.8293 28.9806 79.404 29.1862 79.883C30.0918 81.9907 33.9111 83.906 36.2584 83.4295C37.2279 83.2327 37.4188 83.3782 38.7944 85.3632C40.1483 87.3166 40.2829 87.714 40.2899 89.7775C40.2976 92.0385 40.2939 92.0467 39.0993 92.4111C36.5773 93.1803 29.7431 94.4715 28.1788 94.4746C26.6966 94.4773 26.3847 94.3227 24.8686 92.8335C22.8611 90.8618 21.996 90.3988 20.3192 90.3988C18.8223 90.3988 18.6097 89.9536 18.6023 86.7976C18.5964 84.3833 17.9668 83.6008 16.0292 83.6008C15.0629 83.6008 14.502 83.904 13.3571 85.0454C7.64176 90.7421 2.64148 100.314 0.705359 109.263C-0.226288 113.57 -0.237326 124.055 0.685862 128.128C4.94724 146.934 18.6214 161.442 37.6752 167.372C44.6726 169.549 51.257 170.321 59.1104 169.882C82.0213 168.602 102.163 153.727 108.687 133.267C110.059 128.966 110.092 128.016 108.91 126.923C107.521 125.639 106.151 125.83 103.084 127.732C100.363 129.419 95.7753 131.867 95.3335 131.867C95.1971 131.867 95.1905 130.376 95.3185 128.553C95.4969 126.012 95.7705 124.814 96.491 123.419C97.3977 121.663 97.4297 121.381 97.3911 115.451C97.369 112.069 97.4142 109.208 97.4914 109.093C97.5683 108.978 99.8814 109.259 102.631 109.717C107.599 110.546 107.642 110.561 109.273 112.048C110.177 112.87 110.92 113.804 110.924 114.123C110.938 115.097 112.223 117.395 113.516 118.756C114.19 119.466 115.874 120.735 117.257 121.577C120.265 123.408 121.214 124.844 121.214 127.559C121.214 128.909 121.01 129.636 120.444 130.302C119.489 131.423 119.737 132.415 120.837 131.871C122.567 131.016 123.364 127.897 122.516 125.305C121.813 123.155 120.576 121.796 117.877 120.21C115.544 118.84 113.633 116.97 112.893 115.332C112.08 113.534 112.215 113.279 114.084 113.084C120.808 112.384 123.667 102.433 118.512 97.6693C116.991 96.2638 115.07 95.5031 113.031 95.4994L112.019 95.4974V60.8073C112.019 33.1492 112.112 26.168 112.479 26.3665C112.732 26.5034 114.445 27.6594 116.287 28.9358C119.806 31.3749 121.007 31.727 122.077 30.6343C122.942 29.7505 122.839 28.8498 121.392 24.6595C120.687 22.6204 120.111 20.6014 120.111 20.1724C120.111 19.5688 120.921 18.8774 123.697 17.1102C129.28 13.5573 129.698 13.0348 128.366 11.2775C127.829 10.5692 127.521 10.5219 123.446 10.5219C118.13 10.5219 116.837 10.3098 116.419 9.36899C116.243 8.9747 115.509 6.90572 114.788 4.7708C114.067 2.63588 113.294 0.685519 113.071 0.437051C112.559 -0.133304 110.873 -0.1486 110.102 0.409859ZM112.887 4.48868C113.389 6.03115 114.007 7.94854 114.259 8.75003C114.512 9.55118 115.096 10.5838 115.558 11.0444C116.279 11.7626 116.727 11.8819 118.714 11.8836C122.344 11.8866 127.099 12.2938 127.099 12.6015C127.099 12.7547 125.277 14.0447 123.051 15.4675C120.824 16.8903 118.838 18.338 118.637 18.6847C118.044 19.7085 118.201 20.7584 119.558 24.8389C120.266 26.966 120.845 28.9144 120.846 29.1679C120.847 29.8753 120.072 29.4684 116.105 26.6785C111.231 23.2513 110.967 23.2513 105.71 26.6686C102.182 28.9616 100.985 29.5632 100.985 29.0428C100.985 28.9473 101.655 27.0748 102.473 24.8814C103.467 22.2186 103.925 20.4467 103.853 19.5494C103.736 18.1123 103.594 17.9797 97.7316 13.8258C96.4248 12.8995 95.5447 12.042 95.6855 11.8316C95.8511 11.5838 97.4837 11.5124 100.648 11.614C106.928 11.8159 107.193 11.7045 108.615 8.26193C109.221 6.79423 110.017 4.71403 110.384 3.63893C110.75 2.56382 111.258 1.68449 111.513 1.68449C111.773 1.68449 112.374 2.9112 112.887 4.48868ZM75.1661 40.0611C80.1517 41.2739 86.0781 44.3605 89.1956 47.3683C90.6374 48.7588 90.5319 48.8846 88.7425 47.9091C81.6946 44.0662 66.0207 43.3768 54.458 46.4016C50.4688 47.4451 44.5185 50.0773 41.8291 51.9886L39.8665 53.3832L40.5418 52.2996C41.643 50.5321 46.5286 45.9108 48.8071 44.4808C53.1829 41.7348 57.4748 40.1148 62.1963 39.4279C65.3494 38.9693 72.0155 39.2946 75.1661 40.0611ZM81.574 46.6596C88.2824 48.2874 93.5857 51.5518 95.6175 55.304C96.7139 57.3288 96.4517 57.67 95.1533 55.908C94.0797 54.4512 91.2509 52.2707 90.8589 52.5977C90.6992 52.7309 90.6727 52.6711 90.7996 52.4651C91.156 51.8873 85.4253 49.4417 81.7491 48.6032C79.7192 48.1399 78.0905 47.9502 77.3811 48.0943C76.6723 48.2381 76.3339 48.1987 76.4744 47.9886C76.6182 47.7735 74.6111 47.6691 70.8536 47.697C67.639 47.7208 65.2005 47.854 65.4344 47.9934C65.6683 48.1324 65.1152 48.1579 64.2048 48.0495C61.2403 47.697 47.6073 51.0957 48.2333 52.0314C48.34 52.1915 48.1436 52.2214 47.7964 52.0984C47.3344 51.9342 47.2458 51.995 47.4661 52.3247C47.6632 52.6191 47.625 52.6935 47.3558 52.5396C46.608 52.1126 40.4819 56.1989 40.91 56.8393C41.0402 57.0341 40.9744 57.0949 40.764 56.9749C40.2443 56.6779 39.431 57.6371 39.7709 58.1459C39.9423 58.4022 39.8875 58.4641 39.623 58.3128C39.1081 58.0188 36.9061 61.0976 37.2419 61.6418C37.3691 61.8481 37.3265 61.8933 37.1474 61.7421C36.9682 61.5911 36.6232 61.9735 36.3809 62.5918C35.9825 63.6078 35.9376 63.6343 35.916 62.8668C35.7828 58.1493 41.7832 52.2201 49.8605 49.0885C56.4537 46.5325 62.9639 45.5179 71.7448 45.678C77.0066 45.7738 78.5643 45.9295 81.574 46.6596ZM61.1627 48.7962C61.0406 48.9091 60.7232 48.9213 60.458 48.8231C60.1645 48.7146 60.2517 48.6341 60.6802 48.6178C61.0678 48.6032 61.2849 48.6834 61.1627 48.7962ZM57.8054 53.4546C53.7136 55.8268 51.2317 57.6191 49.1565 59.7003C46.6786 62.1856 44.8933 64.8892 44.9853 66.0177C45.0147 66.3753 44.8705 66.5269 44.6311 66.3899C44.3659 66.2386 44.2986 66.4109 44.435 66.8929C44.5494 67.2964 44.5178 67.5551 44.3648 67.4677C43.9841 67.2502 43.0808 70.8511 43.3971 71.3246C43.5368 71.5333 43.4993 71.7042 43.3136 71.7042C43.1282 71.7042 42.7751 72.8898 42.5294 74.3385C42.2837 75.7871 41.9571 77.5081 41.8034 78.1624L41.5242 79.352L40.8824 77.9924C40.5293 77.2446 39.8246 75.4527 39.3167 74.0101C38.5068 71.711 38.4104 70.935 38.5366 67.722C38.7241 62.9293 38.5605 63.3474 41.401 60.4117C44.1055 57.6163 47.7092 55.5511 52.619 53.9828C55.6766 53.0059 59.1979 52.6473 57.8054 53.4546ZM101.465 56.0222C102.033 56.3679 102.759 56.9964 103.079 57.4189C103.879 58.4746 105.358 67.4368 104.987 68.985C104.667 70.3195 102.494 72.384 101.409 72.384C100.775 72.384 100.703 71.9887 100.527 67.5404C100.358 63.2757 100.196 62.3111 99.165 59.4678C98.521 57.6918 97.9085 56.0477 97.8037 55.8138C97.5014 55.1378 100.273 55.2955 101.465 56.0222ZM95.2821 61.3117C97.5338 63.5181 97.6845 67.1071 95.5899 68.6298C92.9215 70.5693 89.7165 67.9245 89.4491 63.5622C89.3678 62.2376 89.4553 61.6041 89.7003 61.7438C89.9368 61.879 89.9776 61.7213 89.8102 61.3185C89.6642 60.9664 89.6576 60.7829 89.7963 60.9107C89.9345 61.0385 90.3939 60.9192 90.8169 60.6455C92.1988 59.7509 93.9572 60.0133 95.2821 61.3117ZM33.5907 68.5602C33.5999 72.6985 34.1207 75.5349 35.5868 79.4326C36.0255 80.5984 36.2793 81.6491 36.1513 81.7677C35.636 82.2439 33.1729 81.455 31.9551 80.4234C30.688 79.3507 30.6394 79.211 29.7254 74.0282C28.7986 68.7702 28.7967 68.7199 29.4871 67.4174C30.1547 66.1584 32.1901 64.5663 33.132 64.5663C33.4605 64.5663 33.5841 65.6441 33.5907 68.5602ZM95.3762 72.8072C95.9625 73.2406 95.9754 75.5183 95.3946 76.055C94.663 76.731 92.9936 76.5397 92.3628 75.7073C91.5768 74.6702 91.6452 73.5377 92.5445 72.7066C93.3059 72.003 94.3383 72.0397 95.3762 72.8072ZM17.0502 88.3591C17.1388 90.7183 17.027 91.4658 16.4404 92.4379C16.0453 93.0922 15.6117 94.4692 15.4771 95.4974C14.8507 100.273 18.3368 107.897 21.932 109.615C22.5625 109.916 23.7277 111.303 24.9885 113.252C27.6985 117.441 31.1989 121.423 35.0005 124.641C38.3596 127.483 44.3486 131.353 47.2925 132.582C48.8939 133.251 49.1389 133.492 49.308 134.56C50.001 138.931 51.4501 144.961 52.2799 146.924C52.8169 148.196 53.1957 149.266 53.1218 149.304C53.0475 149.341 52.0342 149.812 50.8697 150.349C47.3359 151.981 45.2593 155.326 46.124 157.993C46.5837 159.411 47.8453 161.098 48.4459 161.098C48.65 161.098 48.4724 160.583 48.0516 159.954C47.0361 158.435 47.0291 155.954 48.0358 154.449C48.8832 153.181 51.6035 151.389 53.1582 151.074C53.9615 150.911 54.4275 151.066 55.2448 151.767C55.8237 152.263 56.7936 152.914 57.4005 153.212C58.7739 153.889 62.1367 153.935 63.7881 153.301C64.9599 152.851 65.064 152.87 65.7114 153.648C66.6625 154.791 66.9516 156.508 66.4518 158.049C65.921 159.686 63.2986 161.879 60.956 162.644C57.9025 163.641 57.6142 163.849 59.5488 163.658C62.9646 163.321 66.7199 161.107 67.7538 158.82C68.5372 157.087 68.3791 154.672 67.3823 153.15L66.518 151.831L67.3963 150.379C67.8792 149.58 68.578 147.65 68.9495 146.09C69.6152 143.294 69.6285 143.273 69.8834 144.613C70.5723 148.237 71.548 150.472 72.9538 151.645C75.4828 153.757 79.3256 154.142 82.5748 152.61C84.3484 151.774 85.5485 150.363 86.9973 147.41C88.0187 145.329 88.2099 145.137 89.4869 144.922C97.3259 143.604 99.062 136.625 91.5514 136.625C89.2729 136.625 89.456 135.826 91.9299 134.97C95.1051 133.873 100.573 131.288 103.629 129.44C108.214 126.668 108.763 127.372 106.711 133.393C103.719 142.17 97.9199 150.466 90.8706 156.051C79.7582 164.855 65.1839 169.361 51.4016 168.256C32.1151 166.708 16.2087 156.911 7.49611 141.214C-1.14875 125.638 -0.0743888 106.223 10.2377 91.6769C13.481 87.1025 15.2193 85.2435 16.1406 85.3649C16.8821 85.4624 16.9501 85.6864 17.0502 88.3591ZM95.836 88.3795C95.836 89.786 95.6815 90.7387 95.4535 90.7387C95.2431 90.7387 94.4181 90.4308 93.6199 90.0545L92.169 89.3706L93.7108 87.5287C94.559 86.5158 95.3839 85.7622 95.5443 85.8537C95.7047 85.9454 95.836 87.0817 95.836 88.3795ZM90.6474 88.5753C89.2365 90.1507 83.9221 93.6714 80.9649 94.9896C75.688 97.3417 73.8067 97.7006 66.7795 97.6938C61.0925 97.6884 60.5257 97.6285 57.7683 96.7387C56.1499 96.2166 53.8438 95.3294 52.6437 94.7673C48.7019 92.9206 45.3442 90.4522 48.9689 92.0657C50.8569 92.9059 56.04 94.3352 59.0556 94.8471C62.5166 95.4345 70.0805 95.3417 73.4981 94.6697C79.0472 93.5786 85.899 90.9886 89.5833 88.5892C90.9843 87.6769 91.4569 87.6708 90.6474 88.5753ZM43.0561 90.3988C43.4221 90.7727 43.5442 91.0786 43.3272 91.0786C43.1102 91.0786 42.6707 91.1714 42.3507 91.285C41.9119 91.4406 41.7688 91.2734 41.7688 90.6052C41.7688 89.5436 42.1576 89.4814 43.0561 90.3988ZM94.1132 92.1075C97.3561 93.512 103.833 95.5987 106.248 96.0174C106.995 96.1469 107.606 96.3855 107.606 96.5477C107.606 96.7098 107.177 98.0238 106.652 99.4674C106.024 101.197 105.628 103.183 105.493 105.289L105.286 108.486L103.963 108.291C103.236 108.184 100.531 107.677 97.953 107.163L93.2654 106.23L93.0384 105.113C92.8803 104.332 92.6085 103.995 92.1388 103.995C91.7684 103.995 91.3819 104.12 91.2796 104.273C91.1774 104.426 91.4139 106.365 91.8052 108.583C92.1966 110.8 92.4743 112.654 92.422 112.702C92.3345 112.782 86.1863 112.904 84.7099 112.854C84.1851 112.836 84.0662 112.516 84.0662 111.116C84.0662 109.001 83.3093 107.571 81.9624 107.142C81.3482 106.947 75.9584 106.883 68.4618 106.983L55.9837 107.148L55.1289 108C54.4367 108.691 54.2741 109.231 54.2741 110.843V112.832H49.8605H45.4468V111.843C45.4468 111.298 45.6951 109.654 45.9986 108.189C46.302 106.723 46.5503 105.323 46.5503 105.076C46.5503 104.345 44.9198 104.757 44.7712 105.524C44.6991 105.898 44.5295 106.313 44.3946 106.447C44.1077 106.731 39.9213 107.571 35.6287 108.207L32.6149 108.653L32.6142 104.54C32.6142 102.277 32.4248 99.5847 32.1938 98.5565C31.9628 97.5283 31.7469 96.4729 31.7142 96.2115C31.6722 95.8798 32.5616 95.5528 34.647 95.133C36.2929 94.8012 39.3465 94.0032 41.4323 93.3594L45.2243 92.1888L47.0674 93.5348C49.5357 95.338 53.9067 97.3311 57.8485 98.4511C60.8027 99.2903 61.5971 99.3689 67.1473 99.3689C72.7 99.3689 73.4911 99.2907 76.4516 98.4498C81.4295 97.0354 85.5216 94.9729 89.1754 92.0365C90.0637 91.3227 90.8269 90.7387 90.8714 90.7387C90.9162 90.7387 92.3749 91.3546 94.1132 92.1075ZM23.3227 93.7863C25.1978 95.6357 26.3729 96.1772 28.5124 96.1772C29.9844 96.1772 30.3669 96.5545 30.3669 98.0065C30.3669 98.4212 30.5519 98.9314 30.7777 99.1401C31.2415 99.5687 31.3898 106.763 30.9598 107.977C30.6277 108.915 28.8854 109.266 26.0735 108.961C22.5323 108.576 20.9732 107.383 19.0087 103.557C16.0689 97.8325 16.7412 92.0983 20.3523 92.0983C21.3873 92.0983 21.9162 92.3988 23.3227 93.7863ZM110.548 98.3474C110.548 99.5391 110.374 99.9433 109.679 100.364C109.202 100.653 108.457 101.55 108.025 102.358C106.918 104.423 106.992 103.049 108.174 99.5939C108.924 97.3984 109.251 96.857 109.829 96.857C110.433 96.857 110.548 97.0946 110.548 98.3474ZM115.672 97.6945C119.28 99.4188 120.499 104.812 118.126 108.554C116.792 110.658 115.127 111.536 112.717 111.406C111.006 111.314 110.69 111.168 109.671 110.001C108.679 108.867 108.537 108.446 108.562 106.725C108.608 103.581 110.624 100.938 113.674 100.021C114.392 99.8056 114.778 99.4616 114.778 99.0381C114.778 98.4939 114.55 98.4028 113.399 98.4861C112.219 98.5714 112.019 98.4851 112.019 97.8913C112.019 97.3223 112.255 97.1969 113.325 97.1969C114.043 97.1969 115.099 97.4209 115.672 97.6945ZM81.7899 108.767C82.5531 109.424 82.595 109.742 82.595 114.885V120.31H81.3662C78.0335 120.31 74.4684 122.131 72.6371 124.768C71.5208 126.376 71.4285 126.428 69.723 126.428C67.5655 126.428 67.5151 126.332 67.5151 122.22C67.5151 120.236 67.3532 118.937 67.0737 118.679C66.831 118.454 65.9342 118.271 65.0809 118.271C62.2834 118.271 62.3658 118.432 62.3658 112.966V108.074H71.6753C80.5361 108.074 81.0238 108.107 81.7899 108.767ZM95.2541 108.28C95.7069 108.44 95.836 109.006 95.836 110.829C95.836 112.918 95.7591 113.172 95.125 113.172C94.3147 113.172 94.1393 112.758 93.7924 110.028C93.5328 107.981 93.7336 107.741 95.2541 108.28ZM43.8109 110.535C43.5416 112.735 43.1407 113.512 42.2756 113.512C41.8939 113.512 41.7688 112.931 41.7688 111.157C41.7688 108.667 41.7066 108.752 43.7472 108.46C43.9274 108.434 43.9558 109.353 43.8109 110.535ZM61.6302 113.104C61.6302 116.299 61.7711 117.925 62.0716 118.203C62.3143 118.427 63.211 118.611 64.0643 118.611C66.6864 118.611 66.7795 118.712 66.7795 121.579V124.136L65.1854 122.778C63.2202 121.104 61.4452 120.527 58.228 120.518L55.7454 120.51L55.6578 116.926C55.4426 108.14 55.3319 108.414 59.1005 108.414H61.6302V113.104ZM40.3057 115.657C40.3145 122.353 40.4859 123.091 42.6486 125.73C43.5435 126.822 43.9558 128.472 43.332 128.464C42.8737 128.459 38.1228 125.06 35.8225 123.092C34.636 122.077 32.6145 120.08 31.3294 118.654C29.0608 116.137 25.3865 111.182 25.6425 110.987C25.7123 110.934 27.7555 110.7 30.183 110.467C32.6105 110.234 35.7552 109.856 37.1713 109.626C38.5873 109.397 39.8698 109.269 40.0217 109.342C40.1736 109.414 40.3013 112.256 40.3057 115.657ZM12.5284 112.479C9.94569 113.04 8.39098 114.266 7.76718 116.231C7.55533 116.899 7.70393 116.809 8.4605 115.81C9.67021 114.213 11.1164 113.512 13.2008 113.512C16.532 113.512 19.538 115.601 20.6466 118.684C21.6786 121.556 20.9574 123.831 18.4717 125.547C16.5687 126.859 12.5453 126.247 10.2311 124.291C9.13689 123.367 8.82867 123.716 9.7662 124.817C10.8376 126.076 14.0298 127.448 15.8868 127.448C22.8556 127.448 25.1121 119.214 19.4387 114.488C17.4691 112.847 14.6308 112.022 12.5284 112.479ZM74.1072 114.506C73.265 115.284 73.0321 115.804 73.0321 116.907C73.0321 118.668 73.4937 119.482 74.8638 120.137C76.3552 120.85 77.498 120.779 78.9317 119.885C80.4298 118.951 80.9752 117.366 80.3761 115.688C79.5596 113.401 76.0238 112.734 74.1072 114.506ZM53.9063 116.571V118.611H48.8781C44.7153 118.611 43.734 118.514 43.1771 118.048C42.3396 117.348 42.3091 115.974 43.1131 115.154C43.6472 114.608 44.3479 114.532 48.8141 114.532H53.9063V116.571ZM78.4337 115.271C80.1223 116.737 79.0365 119.29 76.7245 119.29C74.3559 119.29 73.269 116.571 75.1047 115.236C76.3472 114.333 77.3656 114.344 78.4337 115.271ZM95.1633 115.094C96.103 115.88 96.028 117.428 95.0183 118.081C94.3791 118.495 93.1451 118.611 89.3483 118.611C86.4599 118.611 84.4458 118.474 84.3726 118.273C84.3053 118.087 84.3075 117.169 84.3778 116.233L84.505 114.532H89.498C93.6277 114.532 94.6071 114.629 95.1633 115.094ZM42.8722 120.622C42.8722 121.168 42.9726 121.856 43.0955 122.152C43.2183 122.447 43.1385 122.689 42.9186 122.689C42.6986 122.689 42.4172 122.269 42.2933 121.755C42.1697 121.241 41.9899 120.552 41.8939 120.225C41.7817 119.843 41.9255 119.63 42.2959 119.63C42.6876 119.63 42.8722 119.948 42.8722 120.622ZM95.8304 120.225C95.8271 120.366 95.6642 120.71 95.4682 120.99C95.1798 121.402 95.1107 121.353 95.1059 120.735C95.1029 120.314 95.2659 119.97 95.4682 119.97C95.6705 119.97 95.8334 120.085 95.8304 120.225ZM54.2741 120.595C54.2741 120.751 53.5091 121.542 52.5738 122.352C50.6976 123.977 48.9167 127.083 48.5438 129.379C48.2874 130.961 48.1554 131.044 46.7945 130.471C45.7444 130.029 45.2001 128.035 44.8315 123.284L44.6013 120.31H49.4375C52.0978 120.31 54.2741 120.438 54.2741 120.595ZM93.3974 121.075C93.7667 122.349 93.6556 129.34 93.2371 131.143C92.8512 132.807 92.8104 132.845 90.5705 133.672L88.296 134.512L88.0473 136.79C87.9105 138.043 87.7016 139.157 87.5835 139.266C87.4655 139.376 86.9153 139.072 86.3613 138.592C83.815 136.384 78.7975 134.872 74.3195 134.961L71.377 135.02L71.4936 133.528C71.9346 127.891 74.905 123.276 78.6536 122.404C84.7504 120.985 88.62 123.866 89.5153 130.491C89.729 132.07 89.8897 132.377 90.5043 132.377C91.1487 132.377 91.2307 132.169 91.1737 130.677C91.0185 126.591 88.7326 122.675 85.632 121.183L83.8823 120.342L88.5288 120.326C93.0436 120.311 93.1819 120.332 93.3974 121.075ZM61.0785 122.385C63.506 122.999 65.8096 125.497 66.906 128.704C67.4069 130.17 67.8674 132.131 67.9289 133.062L68.0414 134.756L66.7666 134.586C66.0656 134.493 64.0853 134.436 62.3658 134.461C58.8956 134.511 56.2191 135.264 53.4907 136.957C52.4377 137.611 51.815 137.818 51.6488 137.569C51.5105 137.363 51.2828 135.994 51.1423 134.527C50.9727 132.757 50.7086 131.769 50.3567 131.587C49.9219 131.362 49.8973 131.022 50.2206 129.689C51.6877 123.64 55.6078 121.002 61.0785 122.385ZM29.8648 128.153C28.8181 128.913 28.5466 130.629 29.2745 131.886C29.8137 132.817 31.7145 133.647 32.6841 133.374C33.6532 133.101 34.7805 132.234 34.7805 131.761C34.7805 131.575 34.4778 131.675 34.1078 131.984C33.2626 132.691 31.8789 132.705 30.8167 132.017C29.7861 131.351 29.7052 129.499 30.6718 128.69C31.4137 128.07 33.1365 127.934 33.4932 128.468C33.6183 128.655 33.9177 128.803 34.1586 128.797C34.3995 128.79 34.206 128.484 33.7283 128.117C32.6054 127.252 31.0841 127.266 29.8648 128.153ZM70.6638 128.893C70.5241 129.5 70.3163 130.494 70.2019 131.102C69.9139 132.629 69.4979 132.484 69.225 130.762C69.0992 129.968 68.8921 128.974 68.7645 128.553C68.5585 127.873 68.6652 127.788 69.7248 127.788C70.8768 127.788 70.9088 127.825 70.6638 128.893ZM67.6501 136.145C68.2783 136.368 68.315 136.653 68.0804 139.481C67.3334 148.494 65.5653 151.725 61.1403 152.163C57.4273 152.53 54.8137 149.694 52.9718 143.299L52.0092 139.956L52.7926 139.185C53.885 138.11 57.0503 136.573 59.2395 136.054C61.0884 135.616 66.319 135.672 67.6501 136.145ZM79.4621 136.808C82.0558 137.432 83.7231 138.305 85.7743 140.112L87.2985 141.455L86.2157 144.439C84.7585 148.454 83.3626 150.427 81.3949 151.252C78.7629 152.356 75.7605 151.966 74.027 150.294C72.7261 149.039 71.6139 144.996 71.3101 140.417C71.1229 137.591 71.1784 136.842 71.5948 136.599C72.4227 136.115 77.0971 136.239 79.4621 136.808ZM94.3684 138.498C94.7712 138.835 95.1004 139.381 95.1004 139.711C95.1004 141.116 92.1535 143.299 89.4435 143.903C88.4722 144.119 88.403 144.074 88.6105 143.356C88.7351 142.926 89.0198 141.656 89.2427 140.534C89.466 139.413 89.7194 138.285 89.8062 138.027C90.0317 137.358 93.4232 137.707 94.3684 138.498ZM22.0619 141.345C18.2967 143.467 20.3924 149.191 25.1507 149.78C27.8228 150.112 30.3868 148.505 30.3507 146.522C30.3353 145.68 30.2963 145.699 29.6221 146.879C28.3911 149.032 25.6351 149.352 23.1326 147.631C19.1698 144.907 22.5135 140.063 27.2167 141.715C28.4977 142.166 28.4102 141.861 27.075 141.223C25.6027 140.519 23.4334 140.572 22.0619 141.345Z" fill="black"/>
</svg>
